<svg width="107" height="107" viewBox="0 0 107 107" fill="none" xmlns="http://www.w3.org/2000/svg">
<path d="M59.1749 3.87938C59.1752 3.56848 59.068 3.31624 58.8535 3.12264C58.639 2.92905 58.3334 2.81242 57.9365 2.77276C57.6668 2.74581 57.4353 2.76121 57.2419 2.81898C57.0488 2.8742 56.8961 2.963 56.7836 3.08538C56.6737 3.20801 56.6104 3.35329 56.5936 3.5212C56.5746 3.66062 56.5916 3.78567 56.6448 3.89633C56.7005 4.00725 56.7818 4.1066 56.8887 4.19436C56.9958 4.27958 57.1216 4.35768 57.2661 4.42865C57.4109 4.49708 57.5666 4.55889 57.7332 4.61409L58.4187 4.85218C58.7519 4.96257 59.0547 5.09561 59.3269 5.25129C59.5992 5.40698 59.8303 5.58811 60.0204 5.79468C60.2105 6.00125 60.3502 6.23619 60.4395 6.4995C60.5314 6.76307 60.5623 7.05781 60.5323 7.38371C60.482 7.86176 60.3184 8.26425 60.0417 8.59119C59.7677 8.91584 59.3946 9.15222 58.9224 9.30032C58.4531 9.44613 57.9004 9.48725 57.2643 9.42369C56.6334 9.36063 56.0935 9.20904 55.6447 8.9689C55.1984 8.72902 54.8632 8.40644 54.639 8.00117C54.4177 7.59362 54.3287 7.10807 54.3721 6.54454L55.9711 6.70434C55.9628 6.96817 56.016 7.19447 56.1307 7.38323C56.2483 7.56971 56.4146 7.71866 56.6295 7.83008C56.8473 7.93921 57.0987 8.00801 57.3836 8.03649C57.6635 8.06446 57.9105 8.04803 58.1247 7.98721C58.3415 7.92665 58.5144 7.82958 58.6433 7.696C58.7723 7.56243 58.8462 7.4015 58.865 7.21324C58.8825 7.03769 58.8451 6.88492 58.7528 6.75492C58.6629 6.62517 58.523 6.5084 58.3329 6.40462C58.1454 6.30108 57.9126 6.20073 57.6346 6.10356L56.8049 5.80481C56.162 5.57867 55.6667 5.27608 55.3192 4.89703C54.9716 4.51797 54.8279 4.03981 54.8882 3.46254C54.9329 2.98908 55.1001 2.58824 55.3899 2.26002C55.6822 1.93207 56.0621 1.69124 56.5297 1.53754C56.9973 1.38385 57.516 1.33547 58.0859 1.39243C58.666 1.45039 59.1624 1.60021 59.575 1.84188C59.9903 2.0838 60.3011 2.39366 60.5074 2.77145C60.7138 3.14924 60.7975 3.57131 60.7587 4.03765L59.1749 3.87938Z" fill="#FFC533"/>
<path d="M63.0119 10.1632L64.46 4.45307L66.0436 4.85482L64.5955 10.565L63.0119 10.1632ZM65.4422 3.91882C65.2067 3.85909 65.0246 3.72978 64.8956 3.53089C64.7698 3.33015 64.7349 3.11949 64.7908 2.89891C64.8461 2.68082 64.9766 2.51476 65.1822 2.40075C65.391 2.28489 65.6131 2.25682 65.8485 2.31655C66.084 2.37628 66.2646 2.50652 66.3904 2.70726C66.5193 2.90615 66.5561 3.11464 66.5008 3.33274C66.4449 3.55331 66.3126 3.72153 66.1038 3.83739C65.8982 3.9514 65.6776 3.97854 65.4422 3.91882Z" fill="#FFC533"/>
<path d="M70.1306 8.70903L68.8308 11.857L67.3208 11.2333L69.5689 5.7882L71.0081 6.38262L70.6115 7.3433L70.6753 7.36965C70.9265 7.10275 71.232 6.93569 71.5917 6.86848C71.9524 6.79891 72.3348 6.84757 72.7389 7.01448C73.117 7.17065 73.4125 7.38952 73.6254 7.6711C73.8383 7.95268 73.9593 8.2793 73.9885 8.65095C74.0186 9.02024 73.9463 9.41639 73.7716 9.83943L72.3402 13.3064L70.8301 12.6827L72.1503 9.48514C72.2902 9.15289 72.3125 8.85779 72.2171 8.59984C72.1226 8.33952 71.9242 8.1469 71.6217 8.02196C71.4184 7.93802 71.2208 7.90756 71.0287 7.93059C70.839 7.95458 70.6658 8.03242 70.5091 8.1641C70.3557 8.2944 70.2295 8.47604 70.1306 8.70903Z" fill="#FFC533"/>
<path d="M77.0905 16.0979C76.5846 15.769 76.2191 15.3789 75.994 14.9276C75.7724 14.4756 75.6888 13.9943 75.7431 13.4837C75.7996 12.9745 75.9901 12.4702 76.3148 11.9706C76.6436 11.4647 77.0295 11.0843 77.4726 10.8295C77.9192 10.574 78.3933 10.4568 78.8949 10.4779C79.3979 10.4969 79.8991 10.6688 80.3986 10.9935C80.8295 11.2736 81.1559 11.5971 81.3779 11.9641C81.5999 12.331 81.7132 12.7173 81.7179 13.1229C81.7227 13.5285 81.6107 13.9284 81.382 14.3226L80.0894 13.4822C80.2131 13.212 80.2456 12.951 80.1866 12.6992C80.1312 12.4466 79.9781 12.2388 79.7273 12.0758C79.515 11.9378 79.292 11.8751 79.0581 11.8878C78.8278 11.8997 78.5976 11.9864 78.3676 12.1479C78.1376 12.3094 77.9216 12.5456 77.7196 12.8565C77.5148 13.1716 77.3835 13.4675 77.3257 13.7441C77.2701 14.022 77.284 14.2704 77.3674 14.4893C77.4508 14.7082 77.5986 14.8867 77.8108 15.0246C77.9673 15.1264 78.1286 15.1855 78.2948 15.202C78.463 15.2199 78.6276 15.1942 78.7885 15.125C78.9529 15.055 79.1044 14.9415 79.243 14.7846L80.5356 15.625C80.2689 15.9883 79.9501 16.2538 79.579 16.4212C79.2115 16.5879 78.8147 16.6471 78.3887 16.5988C77.9626 16.5506 77.5299 16.3836 77.0905 16.0979Z" fill="#FFC533"/>
<path d="M83.4807 21.0053C83.041 20.5883 82.747 20.1403 82.5986 19.6614C82.4538 19.1823 82.4518 18.6976 82.5925 18.2073C82.7349 17.7151 83.0198 17.2436 83.4473 16.7927C83.8641 16.3529 84.3154 16.0479 84.8009 15.8776C85.2865 15.7074 85.7721 15.6763 86.2578 15.7846C86.7454 15.8946 87.1989 16.1484 87.6182 16.546C87.9002 16.8135 88.1196 17.1079 88.2764 17.4293C88.4369 17.7506 88.5227 18.0874 88.5339 18.4398C88.5469 18.794 88.4752 19.1559 88.3187 19.5254C88.1639 19.8931 87.9141 20.2587 87.5693 20.6224L87.2606 20.9481L83.6512 17.5253L84.3478 16.7905L86.8413 19.155C87.0031 18.9843 87.1093 18.7979 87.16 18.5958C87.2107 18.3937 87.2054 18.193 87.144 17.9939C87.0863 17.7947 86.9711 17.6132 86.7986 17.4496C86.6186 17.279 86.4195 17.1694 86.2012 17.121C85.9865 17.0724 85.7742 17.0808 85.5644 17.146C85.3563 17.2095 85.1713 17.3247 85.0094 17.4918L84.3471 18.1904C84.1466 18.402 84.0122 18.6217 83.9442 18.8496C83.8779 19.0793 83.8776 19.3045 83.9432 19.5252C84.0087 19.7459 84.1408 19.9504 84.3393 20.1387C84.471 20.2636 84.6092 20.3594 84.7538 20.4261C84.8984 20.4928 85.0449 20.5259 85.1932 20.5256C85.3415 20.5253 85.487 20.4907 85.6299 20.4217L86.6577 21.5339C86.3523 21.7446 86.0201 21.8665 85.6611 21.8996C85.3057 21.9325 84.9407 21.8753 84.566 21.7279C84.195 21.5805 83.8332 21.3396 83.4807 21.0053Z" fill="#FFC533"/>
<path d="M90.3617 28.6423L91.4018 28.0506L95.0341 29.2008C95.3517 29.2937 95.6303 29.3646 95.8699 29.4136C96.1108 29.4648 96.3288 29.4835 96.5238 29.4696C96.7211 29.4544 96.9097 29.3956 97.0898 29.2932C97.2898 29.1794 97.4361 29.0359 97.5287 28.8626C97.6236 28.688 97.665 28.4997 97.653 28.2977C97.6433 28.0943 97.5816 27.8927 97.4678 27.6926C97.349 27.4837 97.2031 27.3255 97.0302 27.218C96.8573 27.1104 96.6679 27.0593 96.4621 27.0646C96.2562 27.07 96.0444 27.1346 95.8267 27.2585L95.0474 25.8883C95.4941 25.6341 95.9394 25.5146 96.3833 25.5298C96.8273 25.5449 97.2429 25.6835 97.6302 25.9456C98.0175 26.2077 98.3464 26.5765 98.6169 27.0521C98.895 27.5411 99.0503 28.016 99.083 28.4769C99.1192 28.9388 99.0426 29.3574 98.8531 29.7329C98.6637 30.1083 98.3723 30.408 97.979 30.6318C97.7212 30.7784 97.4376 30.8721 97.1284 30.9127C96.8204 30.9556 96.4397 30.9353 95.9864 30.852C95.5353 30.7674 94.9631 30.612 94.2697 30.3858L92.7261 29.9447L92.6794 29.9712L94.31 32.8383L93.1299 33.5096L90.3617 28.6423Z" fill="#FFC533"/>
<path d="M95.2507 39.088C95.0443 38.4615 95.0186 37.8716 95.1736 37.3185C95.3294 36.7678 95.6566 36.2744 96.1553 35.8383C96.6548 35.4047 97.3123 35.053 98.128 34.7834C98.9404 34.5121 99.6729 34.4009 100.325 34.4499C100.979 34.5013 101.529 34.7016 101.977 35.0507C102.429 35.4013 102.758 35.8883 102.966 36.5116C103.175 37.1349 103.203 37.7211 103.052 38.2702C102.902 38.8217 102.581 39.3143 102.09 39.7479C101.601 40.1808 100.95 40.5316 100.136 40.8005C99.3192 41.0734 98.5803 41.1853 97.9197 41.1364C97.2599 41.0898 96.7024 40.8932 96.247 40.5466C95.7917 40.1999 95.4596 39.7137 95.2507 39.088ZM96.5567 38.6519C96.6992 39.0788 97.0275 39.3479 97.5418 39.4592C98.0561 39.5705 98.742 39.4816 99.5997 39.1925C100.165 39.0038 100.616 38.7885 100.953 38.5466C101.291 38.3071 101.519 38.0503 101.638 37.7761C101.757 37.5044 101.77 37.2266 101.675 36.9429C101.533 36.5184 101.208 36.2497 100.698 36.1368C100.189 36.0239 99.5107 36.1075 98.6635 36.3877C98.0912 36.5788 97.6324 36.7953 97.2873 37.0373C96.9454 37.2808 96.7139 37.5401 96.5927 37.8151C96.474 38.0892 96.462 38.3682 96.5567 38.6519Z" fill="#FFC533"/>
<path d="M97.2627 47.5292C97.1833 46.8743 97.2738 46.2909 97.5344 45.779C97.7953 45.2696 98.213 44.8501 98.7876 44.5204C99.3625 44.1933 100.076 43.9776 100.929 43.8733C101.779 43.7669 102.519 43.8017 103.149 43.9778C103.78 44.1565 104.28 44.461 104.651 44.8913C105.025 45.3237 105.252 45.866 105.334 46.518C105.416 47.17 105.329 47.7504 105.073 48.2591C104.817 48.7704 104.406 49.1904 103.839 49.5191C103.275 49.8475 102.567 50.0637 101.717 50.1676C100.862 50.2747 100.116 50.2394 99.4777 50.0617C98.8399 49.8865 98.3318 49.5842 97.9533 49.1549C97.5749 48.7256 97.3447 48.1837 97.2627 47.5292ZM98.6289 47.358C98.6848 47.8045 98.954 48.1328 99.4364 48.343C99.9188 48.5531 100.609 48.6006 101.507 48.4856C102.098 48.4115 102.582 48.289 102.96 48.118C103.339 47.9494 103.613 47.7424 103.783 47.4969C103.954 47.254 104.02 46.9841 103.983 46.6872C103.928 46.2433 103.661 45.9159 103.184 45.7051C102.706 45.4944 102.025 45.4432 101.139 45.5515C100.54 45.6266 100.048 45.7488 99.6622 45.9182C99.2792 46.0899 99.0013 46.2987 98.8285 46.5445C98.6582 46.79 98.5917 47.0612 98.6289 47.358Z" fill="#FFC533"/>
<path d="M97.5845 56.2919C97.6343 55.6341 97.837 55.0796 98.1924 54.6284C98.5477 54.1798 99.0393 53.8498 99.6671 53.6387C100.295 53.43 101.037 53.3578 101.894 53.422C102.748 53.4835 103.467 53.6621 104.051 53.9579C104.634 54.2562 105.066 54.6526 105.346 55.1469C105.628 55.644 105.745 56.2203 105.698 56.8757C105.651 57.5311 105.452 58.0833 105.102 58.5324C104.752 58.9839 104.266 59.3156 103.646 59.5273C103.029 59.7392 102.293 59.8132 101.439 59.7492C100.579 59.6873 99.8539 59.507 99.2627 59.2081C98.6713 58.9118 98.232 58.5161 97.9446 58.0212C97.6572 57.5263 97.5371 56.9499 97.5845 56.2919ZM98.9578 56.3907C98.9255 56.8396 99.1254 57.2141 99.5575 57.5144C99.9897 57.8146 100.657 57.9959 101.56 58.0583C102.154 58.1011 102.654 58.0755 103.058 57.9815C103.462 57.8901 103.771 57.7406 103.986 57.533C104.2 57.328 104.319 57.0763 104.34 56.778C104.372 56.3317 104.175 55.9586 103.748 55.6587C103.321 55.3588 102.662 55.1756 101.772 55.109C101.17 55.0657 100.664 55.0895 100.252 55.1804C99.843 55.274 99.5297 55.4245 99.3123 55.6318C99.0974 55.8394 98.9792 56.0924 98.9578 56.3907Z" fill="#FFC533"/>
<path d="M96.6873 68.8336C96.7988 68.545 96.971 68.3087 97.2039 68.1246C97.4391 67.9414 97.7036 67.8243 97.9974 67.7734C98.2902 67.7248 98.581 67.7563 98.8695 67.8679C99.1605 67.9803 99.3968 68.1525 99.5786 68.3845C99.7618 68.6198 99.8777 68.8838 99.9262 69.1767C99.9772 69.4705 99.9469 69.7617 99.8354 70.0503C99.723 70.3413 99.5496 70.5772 99.3153 70.758C99.0824 70.9421 98.8196 71.0584 98.5267 71.107C98.2353 71.1588 97.9442 71.1285 97.6532 71.0161C97.3646 70.9045 97.1287 70.7311 96.9455 70.4959C96.7614 70.263 96.6439 69.9996 96.5929 69.7058C96.5435 69.4153 96.5749 69.1246 96.6873 68.8336Z" fill="#FFC533"/>
<path d="M92.3208 84.9796C92.5829 85.1468 92.8532 85.192 93.1317 85.115C93.4102 85.0381 93.6727 84.8429 93.9193 84.5294C94.0869 84.3164 94.1982 84.1128 94.2534 83.9187C94.3105 83.7261 94.3176 83.5496 94.2748 83.389C94.2304 83.2304 94.1419 83.0989 94.0093 82.9945C93.9019 82.9036 93.7873 82.8508 93.6654 82.8362C93.5419 82.8236 93.4145 82.8388 93.2831 82.8818C93.1537 82.9264 93.0202 82.9906 92.8827 83.0743C92.7473 83.1597 92.6115 83.2578 92.4755 83.3688L91.9065 83.819C91.6344 84.0409 91.3596 84.2248 91.0821 84.3708C90.8046 84.5168 90.5277 84.6145 90.2514 84.6639C89.9751 84.7132 89.7019 84.7049 89.4318 84.6388C89.1602 84.5747 88.895 84.4424 88.6362 84.242C88.2601 83.9428 88.0084 83.5886 87.8813 83.1795C87.7546 82.774 87.7556 82.3323 87.8843 81.8544C88.0134 81.3801 88.2756 80.8918 88.6708 80.3894C89.0628 79.891 89.4807 79.517 89.9242 79.2675C90.3662 79.0199 90.8183 78.9104 91.2805 78.939C91.7432 78.9712 92.2005 79.157 92.6524 79.4964L91.6589 80.7594C91.4409 80.6106 91.2214 80.5339 91.0006 80.5293C90.7802 80.5283 90.5652 80.5885 90.3558 80.71C90.1468 80.8351 89.9538 81.0102 89.7767 81.2353C89.6028 81.4563 89.484 81.6735 89.4202 81.8869C89.3549 82.1023 89.3439 82.3003 89.3873 82.4808C89.4307 82.6614 89.5268 82.8102 89.6755 82.9272C89.8141 83.0363 89.963 83.0868 90.1223 83.0787C90.28 83.0726 90.4536 83.0173 90.6432 82.9127C90.8312 82.8102 91.0409 82.6677 91.2722 82.4853L91.9698 81.946C92.5058 81.5251 93.027 81.2699 93.5334 81.1803C94.0397 81.0908 94.5202 81.2265 94.9747 81.5874C95.35 81.8795 95.5983 82.2359 95.7195 82.6566C95.8391 83.0794 95.8382 83.5293 95.7167 84.0063C95.5952 84.4833 95.3574 84.9469 95.0033 85.397C94.6428 85.8552 94.2499 86.1934 93.8244 86.4117C93.3974 86.632 92.9691 86.7277 92.5396 86.6989C92.1102 86.67 91.7092 86.5139 91.3368 86.2306L92.3208 84.9796Z" fill="#FFC533"/>
<path d="M83.6183 85.9896C83.9018 85.7429 84.1973 85.5722 84.5047 85.4776C84.8137 85.3849 85.1176 85.3798 85.4163 85.4622C85.7148 85.5482 85.9916 85.7378 86.2466 86.031C86.4614 86.2779 86.5965 86.5248 86.6518 86.7715C86.7071 87.0182 86.7011 87.2607 86.6338 87.4988C86.5665 87.737 86.4562 87.9686 86.3028 88.1936C86.1475 88.4202 85.9692 88.6398 85.7677 88.8523C85.5328 89.1042 85.3463 89.3106 85.2082 89.4714C85.0719 89.6341 84.989 89.7706 84.9596 89.8809C84.9302 89.9912 84.9566 90.0937 85.0388 90.1882L85.0539 90.2055C85.2133 90.3888 85.3945 90.4803 85.5975 90.4799C85.7985 90.4812 86.0042 90.3903 86.2144 90.2074C86.4363 90.0144 86.57 89.8116 86.6155 89.5991C86.6628 89.3885 86.6439 89.1915 86.5588 89.0079L87.7793 88.1086C87.9563 88.4291 88.0456 88.7615 88.047 89.106C88.0501 89.4524 87.9637 89.7953 87.7879 90.1347C87.6118 90.4777 87.3463 90.8036 86.9914 91.1124C86.7445 91.3272 86.4831 91.5039 86.2071 91.6424C85.9291 91.7825 85.6495 91.8682 85.3683 91.8994C85.0851 91.9323 84.8094 91.8977 84.541 91.7957C84.2743 91.6956 84.0261 91.5134 83.7962 91.2491L81.1886 88.2512L82.3574 87.2341L82.8936 87.8505L82.9283 87.8202C82.8788 87.6192 82.8678 87.4137 82.8951 87.2035C82.924 86.9953 82.9964 86.7883 83.1122 86.5824C83.2297 86.3785 83.3984 86.1809 83.6183 85.9896ZM84.0053 87.1475C83.824 87.3053 83.6949 87.4803 83.6181 87.6725C83.543 87.8666 83.5196 88.0598 83.5479 88.2521C83.5762 88.4444 83.6583 88.6187 83.7942 88.7749L84.2045 89.2466C84.2213 89.188 84.2542 89.1186 84.3032 89.0387C84.352 88.9623 84.4104 88.8794 84.4782 88.7899C84.5477 88.7023 84.6181 88.6156 84.6893 88.5299C84.7621 88.4462 84.8281 88.3701 84.8873 88.3017C85.0135 88.1547 85.1104 88.011 85.1782 87.8707C85.2459 87.7304 85.2753 87.5947 85.2663 87.4636C85.259 87.3344 85.205 87.2119 85.1043 87.0961C84.9583 86.9283 84.786 86.8529 84.5873 86.8699C84.3883 86.8905 84.1943 86.983 84.0053 87.1475Z" fill="#FFC533"/>
<path d="M79.385 96.646L78.7259 95.6107L81.7181 93.705L82.3772 94.7402L79.385 96.646ZM82.4559 96.3634L81.0778 97.2411L78.1282 92.6083C78.0472 92.4811 77.9646 92.3942 77.8805 92.3478C77.7978 92.3035 77.7129 92.2893 77.6261 92.3052C77.5371 92.3225 77.4462 92.3607 77.3535 92.4198C77.2888 92.461 77.2275 92.5076 77.1697 92.5596C77.1132 92.6137 77.0698 92.655 77.0394 92.6834L76.1697 91.7959C76.225 91.7304 76.3062 91.6438 76.4135 91.5361C76.5193 91.4262 76.6597 91.3111 76.8346 91.1906C77.1584 90.9661 77.4777 90.8249 77.7924 90.767C78.105 90.7104 78.3982 90.7449 78.6722 90.8705C78.9462 90.9961 79.1857 91.2224 79.3909 91.5495L82.4559 96.3634Z" fill="#FFC533"/>
<path d="M74.3455 92.7452L76.9499 98.0291L75.4845 98.7516L72.8801 93.4677L74.3455 92.7452ZM76.5495 99.0732C76.7673 98.9658 76.9898 98.9459 77.217 99.0135C77.443 99.0845 77.6063 99.2221 77.7069 99.4262C77.8063 99.628 77.8149 99.839 77.7324 100.059C77.6488 100.283 77.4981 100.448 77.2803 100.556C77.0624 100.663 76.8405 100.681 76.6145 100.61C76.3873 100.543 76.224 100.408 76.1246 100.206C76.024 100.002 76.0154 99.7884 76.099 99.5647C76.1815 99.3444 76.3316 99.1806 76.5495 99.0732Z" fill="#FFC533"/>
<path d="M67.0652 100.251L68.4543 99.6885C68.5191 99.8016 68.6078 99.8933 68.7202 99.9635C68.8335 100.036 68.9654 100.08 69.1158 100.094C69.2645 100.112 69.4286 100.09 69.6081 100.03C69.8481 99.9499 70.0335 99.8312 70.1643 99.6742C70.2959 99.5196 70.3337 99.3586 70.2777 99.1913C70.2331 99.058 70.142 98.9631 70.0045 98.9067C69.867 98.8502 69.6592 98.8376 69.3811 98.8686L68.3019 99.0034C67.7215 99.0737 67.2565 99.0298 66.9071 98.8718C66.5576 98.7138 66.3155 98.4335 66.1808 98.031C66.0583 97.6649 66.0587 97.3075 66.182 96.9589C66.3028 96.611 66.524 96.297 66.8454 96.0168C67.1653 95.7399 67.5677 95.5203 68.0526 95.3579C68.7921 95.1104 69.4328 95.0671 69.9747 95.2281C70.5149 95.3924 70.9119 95.7286 71.1656 96.2369L69.6685 96.8271C69.547 96.617 69.3779 96.4822 69.1611 96.4226C68.9452 96.3655 68.699 96.3832 68.4226 96.4757C68.151 96.5666 67.9503 96.6918 67.8203 96.8512C67.6887 97.0139 67.6497 97.1793 67.7032 97.3474C67.7527 97.4873 67.8507 97.5826 67.9971 97.6333C68.1443 97.6865 68.3472 97.6967 68.6059 97.6641L69.6378 97.533C70.2199 97.4595 70.6893 97.5126 71.046 97.6925C71.4004 97.8731 71.6473 98.172 71.7869 98.589C71.907 98.9479 71.9135 99.2895 71.8063 99.6139C71.6967 99.939 71.4885 100.231 71.1816 100.49C70.8722 100.75 70.4787 100.96 70.0011 101.12C69.2955 101.356 68.6904 101.393 68.1857 101.23C67.6786 101.068 67.3051 100.742 67.0652 100.251Z" fill="#FFC533"/>
<path d="M61.0634 103.263L60.852 102.055L64.4334 101.428L64.6448 102.637L61.0634 103.263ZM62.81 96.9775L63.8984 103.2C63.9719 103.62 63.9511 103.983 63.8358 104.289C63.7181 104.595 63.5277 104.843 63.2649 105.031C63.002 105.22 62.6879 105.346 62.3227 105.41C62.0759 105.454 61.8472 105.474 61.6366 105.472C61.4235 105.47 61.2639 105.463 61.1579 105.451L61.2335 104.192C61.3 104.201 61.3814 104.206 61.4777 104.207C61.5714 104.209 61.6661 104.201 61.7618 104.185C61.9986 104.143 62.1539 104.059 62.2277 103.932C62.3019 103.807 62.3219 103.647 62.2875 103.45L61.2045 97.2584L62.81 96.9775Z" fill="#FFC533"/>
<path d="M55.8798 97.7805C56.2556 97.7727 56.5918 97.8309 56.8885 97.9551C57.1853 98.0819 57.422 98.2726 57.5986 98.5272C57.7728 98.7844 57.8639 99.1073 57.872 99.4958C57.8789 99.823 57.8245 100.099 57.709 100.324C57.5935 100.549 57.4337 100.731 57.2294 100.871C57.0252 101.011 56.7922 101.118 56.5303 101.193C56.2659 101.267 55.9883 101.322 55.6975 101.356C55.3557 101.399 55.0803 101.438 54.8713 101.473C54.6624 101.51 54.5113 101.562 54.4181 101.628C54.3248 101.694 54.2795 101.789 54.2821 101.915L54.2826 101.938C54.2877 102.181 54.3683 102.367 54.5244 102.497C54.678 102.626 54.8942 102.688 55.1728 102.682C55.4668 102.676 55.6993 102.606 55.8704 102.472C56.0416 102.341 56.1532 102.177 56.2054 101.982L57.7187 102.073C57.6495 102.433 57.5051 102.745 57.2856 103.01C57.0662 103.278 56.7803 103.486 56.4279 103.634C56.073 103.785 55.6604 103.865 55.19 103.875C54.8628 103.882 54.5489 103.85 54.2482 103.78C53.945 103.709 53.6753 103.596 53.4394 103.44C53.2008 103.284 53.0112 103.081 52.8704 102.83C52.7297 102.583 52.6557 102.284 52.6484 101.933L52.5654 97.961L54.1145 97.9287L54.1316 98.7454L54.1776 98.7444C54.2683 98.5584 54.3914 98.3934 54.547 98.2495C54.7026 98.1082 54.8908 97.9956 55.1115 97.9117C55.3323 97.8303 55.5884 97.7866 55.8798 97.7805ZM55.4356 98.9176C55.1953 98.9226 54.9841 98.9744 54.802 99.0728C54.62 99.1738 54.4783 99.3072 54.3769 99.4729C54.2755 99.6387 54.227 99.8252 54.2313 100.032L54.2444 100.657C54.2948 100.623 54.3644 100.591 54.4533 100.561C54.5397 100.533 54.6376 100.507 54.7471 100.482C54.8566 100.459 54.9661 100.438 55.0756 100.417C55.1852 100.4 55.2846 100.384 55.3738 100.369C55.5649 100.337 55.7314 100.289 55.8733 100.224C56.0152 100.16 56.1247 100.074 56.2017 99.968C56.2788 99.8641 56.3158 99.7355 56.3126 99.5821C56.3079 99.3597 56.2238 99.1914 56.0603 99.0772C55.8943 98.9656 55.6861 98.9124 55.4356 98.9176Z" fill="#FFC533"/>
<path d="M46.9404 97.344C47.5362 97.4396 48.0284 97.648 48.4171 97.9693C48.8029 98.2927 49.0744 98.6988 49.2317 99.1875C49.3864 99.6759 49.4166 100.214 49.3223 100.802C49.2268 101.398 49.0281 101.902 48.7263 102.315C48.4216 102.73 48.0357 103.029 47.5686 103.213C47.101 103.399 46.5731 103.446 45.9849 103.351C45.4775 103.27 45.0479 103.106 44.6963 102.861C44.3446 102.615 44.0844 102.308 43.9157 101.939C43.747 101.571 43.6873 101.16 43.7366 100.707L45.2589 100.951C45.2553 101.248 45.3315 101.5 45.4874 101.706C45.6404 101.914 45.8646 102.042 46.16 102.09C46.4099 102.13 46.6392 102.097 46.8479 101.99C47.0537 101.886 47.2289 101.713 47.3737 101.473C47.5185 101.232 47.6203 100.928 47.679 100.562C47.7385 100.191 47.7386 99.8673 47.6793 99.5911C47.6175 99.3145 47.5041 99.093 47.3392 98.9267C47.1742 98.7604 46.9668 98.6572 46.7168 98.6171C46.5325 98.5876 46.3611 98.5989 46.2026 98.6512C46.0415 98.703 45.9014 98.7932 45.7824 98.9217C45.6605 99.0523 45.568 99.2174 45.5049 99.4171L43.9826 99.1729C44.0791 98.7326 44.263 98.3607 44.5343 98.0573C44.8028 97.7559 45.1415 97.541 45.5505 97.4124C45.9596 97.2838 46.4229 97.261 46.9404 97.344Z" fill="#FFC533"/>
<path d="M36.8976 101.045L37.2727 99.8763L40.6504 100.961L40.2752 102.13L36.8976 101.045ZM39.077 103.227L37.5214 102.728L39.2002 97.4984C39.2463 97.3548 39.2604 97.2358 39.2423 97.1413C39.2235 97.0494 39.1803 96.9751 39.1125 96.9184C39.0423 96.8609 38.9549 96.8154 38.8502 96.7818C38.7772 96.7583 38.7022 96.741 38.6253 96.7297C38.5476 96.7208 38.4881 96.7138 38.4468 96.7086L38.5737 95.4725C38.6594 95.4731 38.778 95.4803 38.9293 95.494C39.0815 95.5053 39.2597 95.5397 39.4641 95.5973C39.8437 95.7031 40.1563 95.8585 40.402 96.0636C40.6452 96.268 40.806 96.5156 40.8844 96.8067C40.9629 97.0977 40.9419 97.4267 40.8214 97.7935L39.077 103.227Z" fill="#FFC533"/>
<path d="M36.6908 94.6792L34.289 100.058L32.7973 99.3919L35.199 94.0129L36.6908 94.6792ZM33.23 100.417C33.4518 100.516 33.6092 100.674 33.7023 100.892C33.792 101.112 33.7905 101.325 33.6977 101.533C33.6059 101.739 33.449 101.88 33.2269 101.957C33.0015 102.036 32.7779 102.025 32.5561 101.926C32.3343 101.827 32.1786 101.668 32.0889 101.449C31.9958 101.231 31.9951 101.019 32.0869 100.814C32.1796 100.606 32.3388 100.463 32.5642 100.384C32.7863 100.307 33.0082 100.318 33.23 100.417Z" fill="#FFC533"/>
<path d="M30.4239 91.3632C30.9274 91.6817 31.2951 92.0641 31.5272 92.5104C31.7557 92.9575 31.8477 93.4363 31.8033 93.9467C31.7574 94.4592 31.5733 94.9705 31.2508 95.4805C30.9255 95.9948 30.5419 96.3814 30.0999 96.6403C29.6565 96.9014 29.1845 97.0234 28.6841 97.0063C28.1801 96.9901 27.6764 96.8227 27.1729 96.5042C26.6694 96.1857 26.3035 95.8029 26.0749 95.3558C25.8429 94.9095 25.7498 94.4301 25.7956 93.9175C25.8401 93.4071 26.0249 92.8947 26.3502 92.3804C26.6727 91.8704 27.0556 91.4849 27.499 91.2238C27.9411 90.9649 28.4141 90.8436 28.9181 90.8599C29.4185 90.877 29.9205 91.0447 30.4239 91.3632ZM29.741 92.4288C29.512 92.2839 29.2797 92.2278 29.0443 92.2604C28.8076 92.2952 28.5785 92.4014 28.3573 92.5791C28.1338 92.7554 27.9305 92.9884 27.7474 93.2779C27.5643 93.5675 27.441 93.851 27.3774 94.1285C27.3117 94.4046 27.3139 94.6571 27.384 94.886C27.454 95.1148 27.6036 95.3017 27.8326 95.4466C28.0638 95.5929 28.3 95.65 28.5411 95.6179C28.78 95.5845 29.0112 95.4797 29.2346 95.3034C29.4559 95.1257 29.6581 94.892 29.8412 94.6024C30.0243 94.3129 30.1487 94.03 30.2144 93.7539C30.278 93.4764 30.2736 93.2226 30.2014 92.9924C30.1257 92.7629 29.9722 92.5751 29.741 92.4288Z" fill="#FFC533"/>
<path d="M22.0913 89.6385L24.4149 87.1486L25.6092 88.2635L21.59 92.5704L20.4518 91.5078L21.1609 90.7479L21.1104 90.7008C20.7813 90.8623 20.4366 90.9113 20.0763 90.8477C19.7142 90.786 19.3734 90.606 19.0538 90.3076C18.7547 90.0285 18.5551 89.7196 18.4548 89.3812C18.3545 89.0427 18.356 88.6944 18.4595 88.3362C18.5611 87.9799 18.7681 87.6345 19.0804 87.2999L21.6395 84.5576L22.8337 85.6725L20.4735 88.2017C20.2257 88.4635 20.1011 88.7319 20.0997 89.007C20.0966 89.2839 20.2146 89.534 20.4539 89.7573C20.6146 89.9074 20.7889 90.0054 20.9768 90.0514C21.1628 90.0957 21.3523 90.0837 21.5454 90.0155C21.7347 89.9475 21.9167 89.8218 22.0913 89.6385Z" fill="#FFC533"/>
<path d="M9.45916 76.6904C9.32204 76.828 9.21445 76.974 9.13642 77.1284C9.05615 77.2841 9.00655 77.4477 8.98761 77.619C8.9652 77.7894 8.97394 77.9658 9.01386 78.1484C9.05252 78.3287 9.12397 78.5128 9.2282 78.7006C9.423 79.0515 9.6814 79.3117 10.0034 79.4809C10.3242 79.6479 10.6921 79.7127 11.107 79.6753C11.5197 79.6392 11.9653 79.4883 12.4437 79.2227C12.922 78.9571 13.2886 78.6586 13.5432 78.3271C13.7979 77.9956 13.9397 77.6478 13.9686 77.2838C13.9953 76.9209 13.9082 76.5584 13.7072 76.1963C13.5248 75.8676 13.311 75.6193 13.0657 75.4514C12.8169 75.2824 12.5511 75.196 12.2683 75.1922C11.9842 75.1862 11.6957 75.2644 11.4029 75.427L11.2827 75.1077L12.2654 76.8783L11.1723 77.4852L9.57729 74.6114L10.4424 74.1311C11.0459 73.796 11.6353 73.6355 12.2104 73.6495C12.7833 73.6649 13.3112 73.8309 13.794 74.1477C14.2747 74.4658 14.675 74.9132 14.9951 75.49C15.3525 76.1338 15.5245 76.7782 15.511 77.4232C15.4954 78.0694 15.3006 78.6747 14.9267 79.2391C14.5492 79.8025 13.9984 80.2853 13.2741 80.6874C12.7175 80.9964 12.1766 81.1915 11.6514 81.2725C11.1226 81.3526 10.625 81.3306 10.1585 81.2065C9.6919 81.0824 9.27132 80.87 8.89671 80.5691C8.5221 80.2682 8.20886 79.8909 7.95699 79.437C7.7411 79.0481 7.59709 78.6542 7.52499 78.2556C7.45064 77.8582 7.44433 77.4728 7.50606 77.0993C7.56655 76.7235 7.69283 76.3741 7.88491 76.0511C8.07475 75.7292 8.32653 75.4505 8.64026 75.215L9.45916 76.6904Z" fill="#FFC533"/>
<path d="M8.51583 66.9537L5.28367 67.9515L4.80189 66.3903L10.4307 64.6527L10.8932 66.1515L9.87082 66.4672L9.88892 66.5258C10.2579 66.551 10.5882 66.6805 10.8798 66.9143C11.1706 67.1456 11.3812 67.4726 11.5116 67.8953C11.6277 68.2715 11.6444 68.629 11.5616 68.9676C11.4788 69.3062 11.3047 69.6048 11.0393 69.8634C10.7732 70.1195 10.4206 70.3166 9.98159 70.4548L6.39763 71.5612L5.91586 70.0001L9.22131 68.9796C9.55281 68.8746 9.78792 68.7044 9.92664 68.4689C10.0654 68.2334 10.0891 67.9678 9.99787 67.6722C9.93982 67.4841 9.84278 67.3214 9.70676 67.1841C9.56829 67.0476 9.3981 66.9556 9.19617 66.9082C8.99349 66.8584 8.76671 66.8736 8.51583 66.9537Z" fill="#FFC533"/>
<path d="M9.66115 60.1831C9.70457 60.5564 9.67851 60.8966 9.58295 61.2038C9.48486 61.5112 9.31745 61.7649 9.08073 61.9649C8.84118 62.1627 8.52839 62.284 8.14236 62.3289C7.81728 62.3668 7.53732 62.3388 7.30248 62.2452C7.06765 62.1515 6.87097 62.0097 6.71244 61.8196C6.55391 61.6296 6.42514 61.4077 6.32615 61.1541C6.22686 60.898 6.14641 60.6268 6.0848 60.3405C6.00966 60.0043 5.94474 59.7339 5.89004 59.5291C5.83281 59.3247 5.76698 59.1792 5.69255 59.0927C5.61813 59.0061 5.5187 58.97 5.39426 58.9845L5.3714 58.9872C5.13013 59.0152 4.95232 59.1131 4.83798 59.2809C4.72335 59.4461 4.68213 59.6671 4.71432 59.9439C4.74829 60.236 4.84008 60.4608 4.98969 60.6185C5.13676 60.7764 5.31006 60.8721 5.50957 60.9055L5.56224 62.4206C5.19782 62.3858 4.87309 62.2717 4.58805 62.0784C4.30047 61.8853 4.0663 61.6204 3.88556 61.2836C3.70199 60.9446 3.58302 60.5415 3.52867 60.0742C3.49086 59.7491 3.49278 59.4335 3.53441 59.1275C3.57574 58.819 3.66297 58.5398 3.79609 58.2901C3.92891 58.0378 4.11321 57.8298 4.34899 57.6659C4.58222 57.5024 4.87281 57.4003 5.22074 57.3599L9.16742 56.9007L9.34642 58.4397L8.53499 58.5341L8.54031 58.5798C8.73409 58.6525 8.90998 58.7595 9.06798 58.9007C9.22344 59.0422 9.35338 59.2189 9.45781 59.4307C9.5597 59.6427 9.62748 59.8935 9.66115 60.1831ZM8.4871 59.8486C8.45933 59.6099 8.38783 59.4046 8.27259 59.2326C8.15482 59.061 8.0086 58.9326 7.83395 58.8474C7.6593 58.7621 7.46912 58.7315 7.26341 58.7554L6.64245 58.8277C6.68138 58.8746 6.71998 58.9409 6.75825 59.0266C6.79369 59.11 6.82919 59.2049 6.86475 59.3115C6.89777 59.4183 6.92952 59.5253 6.96 59.6325C6.98794 59.7399 7.01342 59.8373 7.03646 59.9247C7.08655 60.112 7.15034 60.2731 7.22784 60.4083C7.30533 60.5434 7.40072 60.6443 7.514 60.7109C7.62475 60.7778 7.75631 60.8024 7.90869 60.7847C8.12964 60.759 8.28923 60.6593 8.38745 60.4857C8.48283 60.3099 8.51604 60.0975 8.4871 59.8486Z" fill="#FFC533"/>
<path d="M9.02998 53.9147L3.1437 53.6814L3.20641 52.0987L4.23345 52.1394L4.23588 52.0781C3.87479 51.9563 3.60601 51.7652 3.42953 51.5049C3.2505 51.2445 3.16751 50.9495 3.18057 50.6199C3.18381 50.5382 3.19241 50.4502 3.20637 50.3561C3.22034 50.262 3.23768 50.1795 3.2584 50.1087L4.70698 50.1661C4.68095 50.2418 4.65631 50.3471 4.63306 50.4818C4.60981 50.6165 4.59596 50.74 4.5915 50.8524C4.58199 51.0926 4.62586 51.3093 4.72311 51.5025C4.81791 51.693 4.95511 51.8469 5.13471 51.964C5.3144 52.0786 5.52432 52.1407 5.76448 52.1502L9.09467 52.2822L9.02998 53.9147Z" fill="#FFC533"/>
<path d="M9.74104 46.3927C9.66841 46.7615 9.53972 47.0775 9.35497 47.3408C9.16771 47.6036 8.93084 47.7941 8.64437 47.9122C8.35588 48.0274 8.02099 48.0474 7.63968 47.9723C7.31858 47.909 7.06052 47.797 6.86549 47.6361C6.67046 47.4751 6.52648 47.28 6.43354 47.0506C6.34061 46.8212 6.28571 46.5707 6.26887 46.2989C6.25252 46.0247 6.25871 45.7418 6.28744 45.4504C6.31852 45.1073 6.33926 44.83 6.34967 44.6184C6.35757 44.4062 6.33931 44.2476 6.29487 44.1424C6.25044 44.0372 6.16676 43.9725 6.04384 43.9483L6.02126 43.9439C5.78294 43.8969 5.58374 43.9358 5.42365 44.0607C5.26405 44.183 5.15733 44.3808 5.10348 44.6543C5.04666 44.9428 5.06542 45.1849 5.15977 45.3807C5.2516 45.576 5.38741 45.72 5.5672 45.8128L5.1548 47.2717C4.81841 47.1272 4.54402 46.9194 4.33162 46.6482C4.11671 46.3766 3.97461 46.0528 3.90531 45.6769C3.834 45.298 3.84379 44.8778 3.9347 44.4162C3.99794 44.0951 4.09609 43.7952 4.22915 43.5165C4.36271 43.2353 4.53099 42.9962 4.73399 42.799C4.93748 42.5994 5.1765 42.4575 5.45103 42.3735C5.72306 42.289 6.03091 42.2805 6.37459 42.3483L10.273 43.1163L9.97356 44.6365L9.17206 44.4786L9.16317 44.5238C9.3255 44.6522 9.46034 44.8077 9.56769 44.9904C9.67252 45.1727 9.74233 45.3806 9.77711 45.6141C9.80939 45.8472 9.79736 46.1067 9.74104 46.3927ZM8.72516 45.7157C8.7716 45.4799 8.7662 45.2625 8.70895 45.0636C8.6492 44.8642 8.54917 44.6973 8.40888 44.5628C8.26859 44.4283 8.09684 44.341 7.89364 44.301L7.28029 44.1802C7.30302 44.2368 7.31954 44.3117 7.32984 44.4049C7.33813 44.4952 7.34294 44.5964 7.34427 44.7088C7.3431 44.8206 7.34067 44.9322 7.33698 45.0435C7.33079 45.1543 7.32532 45.2549 7.32057 45.3452C7.31111 45.5387 7.32265 45.7117 7.35519 45.864C7.38773 46.0164 7.44777 46.1416 7.53531 46.2396C7.62033 46.3371 7.73811 46.4007 7.88862 46.4304C8.10687 46.4734 8.28925 46.4272 8.43578 46.2919C8.58028 46.1536 8.67674 45.9615 8.72516 45.7157Z" fill="#FFC533"/>
<path d="M8.42609 37.4374L11.5901 38.6974L10.9859 40.2154L5.51293 38.0359L6.08882 36.5893L7.05443 36.9738L7.07996 36.9096C6.80988 36.6617 6.63894 36.3584 6.56714 35.9995C6.49296 35.6397 6.53672 35.2567 6.69843 34.8505C6.84973 34.4704 7.06478 34.1722 7.34359 33.9557C7.6224 33.7392 7.94742 33.6141 8.31863 33.5803C8.68747 33.5455 9.08449 33.6128 9.50969 33.7821L12.9944 35.1698L12.3901 36.6877L9.17622 35.4079C8.84223 35.2721 8.54689 35.2536 8.2902 35.3523C8.03114 35.45 7.84109 35.6509 7.72004 35.955C7.63872 36.1593 7.61079 36.3573 7.63627 36.5491C7.6627 36.7385 7.74274 36.9107 7.8764 37.0658C8.00864 37.2175 8.19187 37.3414 8.42609 37.4374Z" fill="#FFC533"/>
<path d="M10.7537 26.9765L11.8116 27.5987L10.0136 30.6569L8.95575 30.0347L10.7537 26.9765ZM8.14737 28.6249L8.97541 27.2165L13.7094 30.0007C13.8395 30.0772 13.9525 30.1169 14.0486 30.12C14.1424 30.1218 14.2244 30.0959 14.2945 30.0422C14.3659 29.9863 14.4295 29.911 14.4852 29.8162C14.5241 29.7501 14.5575 29.6807 14.5853 29.6081C14.611 29.5342 14.6308 29.4777 14.645 29.4385L15.8232 29.8334C15.8037 29.9169 15.7708 30.0309 15.7243 30.1756C15.68 30.3216 15.6073 30.488 15.5064 30.6749C15.3201 31.0221 15.0999 31.2931 14.846 31.4878C14.5934 31.6804 14.3166 31.783 14.0155 31.7958C13.7143 31.8085 13.398 31.7159 13.0665 31.518L8.14737 28.6249Z" fill="#FFC533"/>
<path d="M18.7087 26.1127C18.3268 26.5831 17.9027 26.9107 17.4366 27.0953C16.9701 27.2764 16.4871 27.3156 15.9876 27.2129C15.486 27.1086 14.9941 26.8606 14.5118 26.4688C14.0415 26.0868 13.7028 25.6602 13.4958 25.189C13.2888 24.7179 13.2207 24.236 13.2914 23.7433C13.3637 23.2486 13.5819 22.777 13.9462 22.3284C14.1911 22.0267 14.4678 21.7853 14.7762 21.6043C15.0842 21.4196 15.4134 21.3082 15.7639 21.2701C16.1159 21.2299 16.4821 21.2738 16.8625 21.4016C17.2409 21.5277 17.6246 21.7488 18.0136 22.0647L18.3619 22.3477L15.2265 26.2093L14.4405 25.571L16.6066 22.9032C16.424 22.7549 16.23 22.6633 16.0246 22.6282C15.8193 22.5932 15.6197 22.6138 15.4259 22.6903C15.2317 22.7632 15.0596 22.8919 14.9098 23.0765C14.7534 23.269 14.6595 23.476 14.6279 23.6974C14.596 23.9152 14.6206 24.1262 14.7018 24.3305C14.7809 24.5332 14.91 24.7088 15.089 24.8575L15.8362 25.4644C16.0625 25.6482 16.2918 25.7653 16.5242 25.8157C16.7582 25.8642 16.9828 25.8472 17.1978 25.7649C17.4128 25.6827 17.6065 25.5353 17.779 25.3229C17.8934 25.182 17.9783 25.0369 18.0337 24.8875C18.0891 24.7382 18.111 24.5896 18.0993 24.4417C18.0876 24.2939 18.0419 24.1514 17.9622 24.0142L18.9921 22.904C19.2256 23.1924 19.3726 23.5144 19.4331 23.8699C19.4932 24.2217 19.4641 24.5901 19.3459 24.975C19.2273 25.3563 19.0149 25.7356 18.7087 26.1127Z" fill="#FFC533"/>
<path d="M24.3313 20.2017C23.8699 20.5945 23.3932 20.8392 22.9012 20.9357C22.4095 21.0286 21.9275 20.979 21.4551 20.7869C20.981 20.5928 20.5426 20.2592 20.1399 19.7861C19.7471 19.3246 19.492 18.8434 19.3744 18.3424C19.2569 17.8414 19.2778 17.3551 19.4372 16.8836C19.5985 16.4104 19.8992 15.9865 20.3391 15.6119C20.635 15.36 20.9511 15.1731 21.2873 15.0514C21.6239 14.9261 21.9679 14.8766 22.3194 14.903C22.6729 14.9278 23.025 15.0377 23.3756 15.2327C23.7247 15.4259 24.0616 15.7132 24.3864 16.0948L24.6773 16.4365L20.8898 19.6613L20.2336 18.8903L22.85 16.6625C22.6976 16.4834 22.5236 16.3579 22.328 16.2859C22.1325 16.214 21.9325 16.1979 21.728 16.2377C21.5237 16.2739 21.3311 16.3691 21.1501 16.5233C20.9612 16.684 20.8311 16.8704 20.7597 17.0823C20.6885 17.2907 20.6742 17.5027 20.7167 17.7183C20.7576 17.932 20.8525 18.1283 21.0013 18.3071L21.6253 19.0402C21.8142 19.2621 22.0183 19.4191 22.2376 19.5111C22.4589 19.6014 22.6827 19.6257 22.9092 19.5841C23.1356 19.5424 23.3529 19.4329 23.5612 19.2555C23.6995 19.1378 23.8094 19.0106 23.8911 18.8739C23.9729 18.7372 24.0215 18.595 24.0369 18.4475C24.0524 18.3 24.0335 18.1516 23.9802 18.0022L25.1954 17.0985C25.3723 17.4247 25.4581 17.7681 25.4527 18.1286C25.4476 18.4856 25.3518 18.8425 25.1654 19.1994C24.9792 19.5526 24.7012 19.8867 24.3313 20.2017Z" fill="#FFC533"/>
<path d="M30.4875 15.6491C30.0986 15.8705 29.6895 15.971 29.2602 15.9506C28.8318 15.9267 28.4141 15.7718 28.0071 15.4856C27.6011 15.196 27.2356 14.7657 26.9106 14.1946C26.5767 13.6079 26.3936 13.0664 26.3612 12.57C26.3275 12.0713 26.4123 11.6362 26.6156 11.2645C26.8198 10.8893 27.1097 10.5949 27.4852 10.3811C27.7718 10.2179 28.0385 10.1308 28.2853 10.1198C28.5329 10.1053 28.7568 10.1368 28.9567 10.2142C29.1577 10.2881 29.3284 10.3762 29.469 10.4786L29.5124 10.4539L28.0518 7.8873L29.4683 7.08092L33.3531 13.9075L31.9532 14.7044L31.4866 13.8844L31.4266 13.9186C31.4409 14.0987 31.4267 14.2936 31.3842 14.5032C31.3426 14.7093 31.2511 14.9129 31.1096 15.114C30.9704 15.3139 30.763 15.4923 30.4875 15.6491ZM30.2944 14.263C30.5233 14.1327 30.6812 13.9605 30.7681 13.7462C30.856 13.5285 30.8777 13.2822 30.8331 13.0075C30.7908 12.7315 30.683 12.4413 30.5098 12.1368C30.3365 11.8324 30.1438 11.592 29.9317 11.4156C29.7195 11.2392 29.4987 11.1355 29.2691 11.1043C29.0396 11.0732 28.8104 11.1228 28.5815 11.253C28.3482 11.3859 28.1876 11.5611 28.0997 11.7789C28.0118 11.9966 27.9906 12.2411 28.0361 12.5124C28.0816 12.7836 28.1885 13.067 28.3566 13.3625C28.5261 13.6603 28.7171 13.9002 28.9295 14.0823C29.143 14.2609 29.3652 14.3698 29.5963 14.4088C29.8284 14.4444 30.0611 14.3958 30.2944 14.263Z" fill="#FFC533"/>
<path d="M42.0657 9.12279C41.7639 9.19081 41.4717 9.17935 41.1892 9.0884C40.906 8.99496 40.6615 8.84039 40.4557 8.62469C40.2523 8.40843 40.1166 8.14939 40.0486 7.84758C39.9801 7.54328 39.9915 7.25108 40.0831 6.97097C40.1765 6.68781 40.3314 6.44454 40.5477 6.24116C40.7634 6.03529 41.0221 5.89834 41.3239 5.83032C41.6282 5.76174 41.9207 5.77445 42.2014 5.86845C42.4839 5.9594 42.7269 6.113 42.9303 6.32927C43.1356 6.54247 43.2725 6.80123 43.341 7.10553C43.409 7.40734 43.3963 7.69982 43.3029 7.98298C43.2119 8.26558 43.0586 8.50982 42.8428 8.71569C42.6291 8.91851 42.37 9.05421 42.0657 9.12279Z" fill="#FFC533"/>
</svg>
