<svg width="97" height="61" viewBox="0 0 97 61" fill="none" xmlns="http://www.w3.org/2000/svg">
<path d="M9.744 46L12.48 32.176L13.344 37.072L3.456 12.4H11.232L18.768 31.264L14.064 31.312L29.28 12.4H37.296L17.616 37.12L20.256 32.176L17.52 46H9.744ZM43.9781 46.384C41.3541 46.384 39.0661 45.904 37.1141 44.944C35.1621 43.984 33.6421 42.64 32.5541 40.912C31.4981 39.184 30.9701 37.152 30.9701 34.816C30.9701 31.936 31.6421 29.376 32.9861 27.136C34.3301 24.864 36.1701 23.072 38.5061 21.76C40.8741 20.448 43.5621 19.792 46.5701 19.792C49.2261 19.792 51.5141 20.272 53.4341 21.232C55.3861 22.192 56.8901 23.536 57.9461 25.264C59.0341 26.96 59.5781 28.992 59.5781 31.36C59.5781 34.208 58.9061 36.768 57.5621 39.04C56.2181 41.312 54.3781 43.104 52.0421 44.416C49.7061 45.728 47.0181 46.384 43.9781 46.384ZM44.4581 40.24C45.9301 40.24 47.2261 39.888 48.3461 39.184C49.4981 38.448 50.3941 37.44 51.0341 36.16C51.6741 34.88 51.9941 33.392 51.9941 31.696C51.9941 29.968 51.4821 28.576 50.4581 27.52C49.4341 26.464 47.9941 25.936 46.1381 25.936C44.6661 25.936 43.3541 26.304 42.2021 27.04C41.0821 27.744 40.1861 28.736 39.5141 30.016C38.8741 31.296 38.5541 32.784 38.5541 34.48C38.5541 36.24 39.0661 37.648 40.0901 38.704C41.1141 39.728 42.5701 40.24 44.4581 40.24ZM72.9364 46.384C70.8244 46.384 69.0004 45.936 67.4644 45.04C65.9284 44.112 64.8404 42.768 64.2004 41.008C63.5604 39.248 63.4964 37.072 64.0084 34.48L66.8404 20.176H74.3284L71.5924 34C71.2084 35.888 71.3524 37.344 72.0244 38.368C72.7284 39.392 73.9604 39.904 75.7204 39.904C77.5764 39.904 79.1284 39.36 80.3764 38.272C81.6564 37.184 82.5044 35.52 82.9204 33.28L85.5604 20.176H93.0484L87.9124 46H80.8084L82.2484 38.704L83.3044 40.912C82.0884 42.8 80.5684 44.192 78.7444 45.088C76.9204 45.952 74.9844 46.384 72.9364 46.384Z" fill="url(#paint0_linear_12903_1462)"/>
<path d="M12 58.9789C14.4014 58.9789 16.8489 58.309 19.1824 57.8388C23.5013 56.9686 27.7141 56.2292 32.0841 55.7107C44.5105 54.2364 56.9975 52.8724 69.4971 52.2145C76.0608 51.8691 82.7021 52.1385 89.2772 52.1385C91.1367 52.1385 93.8123 51.6604 95.4525 52.4806" stroke="#FFB700" stroke-width="3" stroke-linecap="round"/>
<defs>
<linearGradient id="paint0_linear_12903_1462" x1="0" y1="28.5" x2="94" y2="28.5" gradientUnits="userSpaceOnUse">
<stop stop-color="#FFF6E0"/>
<stop offset="1" stop-color="#CC9200"/>
</linearGradient>
</defs>
</svg>
