<svg width="22" height="22" viewBox="0 0 22 22" fill="none" xmlns="http://www.w3.org/2000/svg">
<path d="M7.33421 11.0001C7.33421 8.97512 8.97539 7.33313 11.0004 7.33313C13.0255 7.33313 14.6675 8.97512 14.6675 11.0001C14.6675 13.0251 13.0255 14.6671 11.0004 14.6671C8.97539 14.6671 7.33421 13.0251 7.33421 11.0001ZM5.35185 11.0001C5.35185 14.1197 7.88072 16.6485 11.0004 16.6485C14.1202 16.6485 16.649 14.1197 16.649 11.0001C16.649 7.88049 14.1202 5.35172 11.0004 5.35172C7.88072 5.35172 5.35185 7.88049 5.35185 11.0001ZM15.5526 5.12776C15.5525 5.38883 15.6298 5.64407 15.7748 5.86121C15.9197 6.07834 16.1258 6.24761 16.367 6.34761C16.6082 6.44761 16.8736 6.47386 17.1297 6.42303C17.3857 6.3722 17.621 6.24658 17.8057 6.06205C17.9904 5.87751 18.1162 5.64236 18.1672 5.38633C18.2183 5.13029 18.1922 4.86488 18.0924 4.62364C17.9926 4.3824 17.8235 4.17618 17.6065 4.03104C17.3895 3.88591 17.1343 3.8084 16.8732 3.80829C16.5232 3.80845 16.1871 3.94751 15.9396 4.1949C15.6921 4.4423 15.5529 4.77782 15.5526 5.12776ZM6.55626 19.9538C5.48376 19.905 4.90083 19.7263 4.51344 19.5754C3.99985 19.3755 3.6334 19.1374 3.24812 18.7526C2.86284 18.3679 2.62435 18.0018 2.42529 17.4882C2.27427 17.101 2.09563 16.518 2.04687 15.4455C1.99354 14.286 1.9829 13.9377 1.9829 11.0002C1.9829 8.06265 1.99442 7.71532 2.04687 6.55486C2.09572 5.4824 2.27568 4.90046 2.42529 4.51212C2.62523 3.99855 2.86337 3.63212 3.24812 3.24685C3.63287 2.86159 3.99897 2.62311 4.51344 2.42405C4.90065 2.27304 5.48376 2.0944 6.55626 2.04565C7.7158 1.99232 8.06412 1.98168 11.0004 1.98168C13.9368 1.98168 14.2854 1.9932 15.4459 2.04565C16.5184 2.09449 17.1004 2.27445 17.4888 2.42405C18.0024 2.62311 18.3688 2.86212 18.7541 3.24685C19.1394 3.63159 19.377 3.99855 19.5769 4.51212C19.7279 4.89932 19.9066 5.4824 19.9553 6.55486C20.0087 7.71532 20.0193 8.06265 20.0193 11.0002C20.0193 13.9377 20.0087 14.285 19.9553 15.4455C19.9065 16.518 19.727 17.1009 19.5769 17.4882C19.377 18.0018 19.1388 18.3682 18.7541 18.7526C18.3693 19.137 18.0024 19.3755 17.4888 19.5754C17.1015 19.7264 16.5184 19.9051 15.4459 19.9538C14.2864 20.0072 13.9381 20.0178 11.0004 20.0178C8.0628 20.0178 7.71545 20.0072 6.55626 19.9538ZM6.46518 0.0667076C5.29412 0.120036 4.4939 0.305716 3.79506 0.577636C3.07132 0.858443 2.45864 1.23517 1.8464 1.84642C1.23416 2.45767 0.858386 3.07129 0.577567 3.795C0.305636 4.49425 0.119949 5.294 0.0666187 6.46501C0.0124085 7.63788 0 8.01284 0 11.0001C0 13.9873 0.0124085 14.3623 0.0666187 15.5352C0.119949 16.7063 0.305636 17.5059 0.577567 18.2052C0.858386 18.9284 1.23425 19.5428 1.8464 20.1538C2.45855 20.7647 3.07132 21.1409 3.79506 21.4225C4.49522 21.6945 5.29412 21.8801 6.46518 21.9335C7.63871 21.9868 8.01307 22.0001 11.0004 22.0001C13.9878 22.0001 14.3628 21.9877 15.5357 21.9335C16.7069 21.8801 17.5065 21.6945 18.2058 21.4225C18.9291 21.1409 19.5422 20.765 20.1545 20.1538C20.7667 19.5425 21.1417 18.9284 21.4233 18.2052C21.6952 17.5059 21.8818 16.7062 21.9343 15.5352C21.9876 14.3614 22 13.9873 22 11.0001C22 8.01284 21.9876 7.63788 21.9343 6.46501C21.8809 5.29391 21.6952 4.49381 21.4233 3.795C21.1417 3.07173 20.7658 2.45864 20.1545 1.84642C19.5432 1.2342 18.9291 0.858443 18.2067 0.577636C17.5065 0.305716 16.7068 0.119156 15.5366 0.0667076C14.3637 0.0133796 13.9887 9.15527e-05 11.0013 9.15527e-05C8.01395 9.15527e-05 7.63871 0.0124996 6.46518 0.0667076Z" fill="white" fill-opacity="0.75"/>
<path d="M7.33421 11.0001C7.33421 8.97512 8.97539 7.33313 11.0004 7.33313C13.0255 7.33313 14.6675 8.97512 14.6675 11.0001C14.6675 13.0251 13.0255 14.6671 11.0004 14.6671C8.97539 14.6671 7.33421 13.0251 7.33421 11.0001ZM5.35185 11.0001C5.35185 14.1197 7.88072 16.6485 11.0004 16.6485C14.1202 16.6485 16.649 14.1197 16.649 11.0001C16.649 7.88049 14.1202 5.35172 11.0004 5.35172C7.88072 5.35172 5.35185 7.88049 5.35185 11.0001ZM15.5526 5.12776C15.5525 5.38883 15.6298 5.64407 15.7748 5.86121C15.9197 6.07834 16.1258 6.24761 16.367 6.34761C16.6082 6.44761 16.8736 6.47386 17.1297 6.42303C17.3857 6.3722 17.621 6.24658 17.8057 6.06205C17.9904 5.87751 18.1162 5.64236 18.1672 5.38633C18.2183 5.13029 18.1922 4.86488 18.0924 4.62364C17.9926 4.3824 17.8235 4.17618 17.6065 4.03104C17.3895 3.88591 17.1343 3.8084 16.8732 3.80829C16.5232 3.80845 16.1871 3.94751 15.9396 4.1949C15.6921 4.4423 15.5529 4.77782 15.5526 5.12776ZM6.55626 19.9538C5.48376 19.905 4.90083 19.7263 4.51344 19.5754C3.99985 19.3755 3.6334 19.1374 3.24812 18.7526C2.86284 18.3679 2.62435 18.0018 2.42529 17.4882C2.27427 17.101 2.09563 16.518 2.04687 15.4455C1.99354 14.286 1.9829 13.9377 1.9829 11.0002C1.9829 8.06265 1.99442 7.71532 2.04687 6.55486C2.09572 5.4824 2.27568 4.90046 2.42529 4.51212C2.62523 3.99855 2.86337 3.63212 3.24812 3.24685C3.63287 2.86159 3.99897 2.62311 4.51344 2.42405C4.90065 2.27304 5.48376 2.0944 6.55626 2.04565C7.7158 1.99232 8.06412 1.98168 11.0004 1.98168C13.9368 1.98168 14.2854 1.9932 15.4459 2.04565C16.5184 2.09449 17.1004 2.27445 17.4888 2.42405C18.0024 2.62311 18.3688 2.86212 18.7541 3.24685C19.1394 3.63159 19.377 3.99855 19.5769 4.51212C19.7279 4.89932 19.9066 5.4824 19.9553 6.55486C20.0087 7.71532 20.0193 8.06265 20.0193 11.0002C20.0193 13.9377 20.0087 14.285 19.9553 15.4455C19.9065 16.518 19.727 17.1009 19.5769 17.4882C19.377 18.0018 19.1388 18.3682 18.7541 18.7526C18.3693 19.137 18.0024 19.3755 17.4888 19.5754C17.1015 19.7264 16.5184 19.9051 15.4459 19.9538C14.2864 20.0072 13.9381 20.0178 11.0004 20.0178C8.0628 20.0178 7.71545 20.0072 6.55626 19.9538ZM6.46518 0.0667076C5.29412 0.120036 4.4939 0.305716 3.79506 0.577636C3.07132 0.858443 2.45864 1.23517 1.8464 1.84642C1.23416 2.45767 0.858386 3.07129 0.577567 3.795C0.305636 4.49425 0.119949 5.294 0.0666187 6.46501C0.0124085 7.63788 0 8.01284 0 11.0001C0 13.9873 0.0124085 14.3623 0.0666187 15.5352C0.119949 16.7063 0.305636 17.5059 0.577567 18.2052C0.858386 18.9284 1.23425 19.5428 1.8464 20.1538C2.45855 20.7647 3.07132 21.1409 3.79506 21.4225C4.49522 21.6945 5.29412 21.8801 6.46518 21.9335C7.63871 21.9868 8.01307 22.0001 11.0004 22.0001C13.9878 22.0001 14.3628 21.9877 15.5357 21.9335C16.7069 21.8801 17.5065 21.6945 18.2058 21.4225C18.9291 21.1409 19.5422 20.765 20.1545 20.1538C20.7667 19.5425 21.1417 18.9284 21.4233 18.2052C21.6952 17.5059 21.8818 16.7062 21.9343 15.5352C21.9876 14.3614 22 13.9873 22 11.0001C22 8.01284 21.9876 7.63788 21.9343 6.46501C21.8809 5.29391 21.6952 4.49381 21.4233 3.795C21.1417 3.07173 20.7658 2.45864 20.1545 1.84642C19.5432 1.2342 18.9291 0.858443 18.2067 0.577636C17.5065 0.305716 16.7068 0.119156 15.5366 0.0667076C14.3637 0.0133796 13.9887 9.15527e-05 11.0013 9.15527e-05C8.01395 9.15527e-05 7.63871 0.0124996 6.46518 0.0667076Z" fill="white" fill-opacity="0.75"/>
</svg>
