<svg width="93" height="75" viewBox="0 0 93 75" fill="none" xmlns="http://www.w3.org/2000/svg">
<path d="M1.86011 61.5492C7.00331 58.6727 14.2591 57.5067 20.0181 56.402C29.6049 54.563 39.4104 53.7677 49.1135 52.8497C57.5371 52.0528 66.3328 50.6691 74.842 50.9887C79.6811 51.1704 85.6074 50.587 90.2119 51.3114" stroke="#FFB700" stroke-width="3" stroke-linecap="round"/>
<path d="M10.84 33.6H24.04V38H3.4V34.52L14.52 23.96C17.24 21.36 17.72 19.72 17.72 18.16C17.72 15.6 15.96 14.12 12.52 14.12C9.8 14.12 7.52 15.04 5.96 17.04L2.32 14.24C4.48 11.32 8.36 9.6 12.96 9.6C19.04 9.6 22.96 12.68 22.96 17.64C22.96 20.36 22.2 22.84 18.32 26.48L10.84 33.6ZM51.4153 27.24V31.64H46.4553V38H41.4153V31.64H26.0553V28.04L39.8553 10H45.4153L32.4153 27.24H41.5753V21.6H46.4553V27.24H51.4153ZM51.6594 42L64.8594 4.32H69.3394L56.1394 42H51.6594ZM69.2138 10H90.9738V13.48L80.0938 38H74.5338L85.0538 14.4H74.0538V19.16H69.2138V10Z" fill="#CC9200"/>
</svg>
