<svg width="24" height="25" viewBox="0 0 24 25" fill="none" xmlns="http://www.w3.org/2000/svg">
<path d="M14.8287 8.2574L9.1718 13.9142C8.78127 14.3047 8.78127 14.9379 9.1718 15.3284C9.56232 15.719 10.1955 15.719 10.586 15.3284L16.2429 9.67161C17.4144 8.50004 17.4144 6.60055 16.2429 5.42897C15.0713 4.2574 13.1718 4.2574 12.0002 5.42897L6.34337 11.0858C4.39075 13.0384 4.39075 16.2042 6.34337 18.1569C8.29599 20.1095 11.4618 20.1095 13.4144 18.1569L19.0713 12.5L20.4855 13.9142L14.8287 19.5711C12.095 22.3047 7.66283 22.3047 4.92916 19.5711C2.19549 16.8374 2.19549 12.4053 4.92916 9.67161L10.586 4.01476C12.5386 2.06214 15.7045 2.06214 17.6571 4.01476C19.6097 5.96738 19.6097 9.1332 17.6571 11.0858L12.0002 16.7427C10.8287 17.9142 8.92916 17.9142 7.75759 16.7427C6.58601 15.5711 6.58601 13.6716 7.75759 12.5L13.4144 6.84319L14.8287 8.2574Z" fill="white" fill-opacity="0.5"/>
</svg>
