<svg width="18" height="18" viewBox="0 0 18 18" fill="none" xmlns="http://www.w3.org/2000/svg">
<path d="M4.05001 18.0001H0.224997V5.96259H4.05001V18.0001ZM2.1375 4.27509C0.900002 4.27509 0 3.37509 0 2.13759C0 0.900091 1.0125 9.15527e-05 2.1375 9.15527e-05C3.375 9.15527e-05 4.275 0.900091 4.275 2.13759C4.275 3.37509 3.375 4.27509 2.1375 4.27509ZM18 18.0001H14.175V11.4751C14.175 9.56259 13.3875 9.00009 12.2625 9.00009C11.1375 9.00009 10.0125 9.90009 10.0125 11.5876V18.0001H6.1875V5.96259H9.7875V7.65009C10.125 6.86259 11.475 5.62509 13.3875 5.62509C15.525 5.62509 17.775 6.86259 17.775 10.5751V18.0001H18Z" fill="white" fill-opacity="0.75"/>
</svg>
