<svg width="102" height="53" viewBox="0 0 102 53" fill="none" xmlns="http://www.w3.org/2000/svg">
<path d="M3.76001 38.5V10.5H8.04001L20.28 30.94H18.04L30.08 10.5H34.36L34.4 38.5H29.48L29.44 18.22H30.48L20.24 35.3H17.92L7.52001 18.22H8.72001V38.5H3.76001ZM51.0831 38.78C48.8965 38.78 46.9498 38.3133 45.2431 37.38C43.5365 36.42 42.1898 35.1133 41.2031 33.46C40.2165 31.8067 39.7231 29.9267 39.7231 27.82C39.7231 25.6867 40.2165 23.8067 41.2031 22.18C42.1898 20.5267 43.5365 19.2333 45.2431 18.3C46.9498 17.3667 48.8965 16.9 51.0831 16.9C53.2965 16.9 55.2565 17.3667 56.9631 18.3C58.6965 19.2333 60.0431 20.5133 61.0031 22.14C61.9898 23.7667 62.4831 25.66 62.4831 27.82C62.4831 29.9267 61.9898 31.8067 61.0031 33.46C60.0431 35.1133 58.6965 36.42 56.9631 37.38C55.2565 38.3133 53.2965 38.78 51.0831 38.78ZM51.0831 34.5C52.3098 34.5 53.4031 34.2333 54.3631 33.7C55.3231 33.1667 56.0698 32.3933 56.6031 31.38C57.1631 30.3667 57.4431 29.18 57.4431 27.82C57.4431 26.4333 57.1631 25.2467 56.6031 24.26C56.0698 23.2467 55.3231 22.4733 54.3631 21.94C53.4031 21.4067 52.3231 21.14 51.1231 21.14C49.8965 21.14 48.8031 21.4067 47.8431 21.94C46.9098 22.4733 46.1631 23.2467 45.6031 24.26C45.0431 25.2467 44.7631 26.4333 44.7631 27.82C44.7631 29.18 45.0431 30.3667 45.6031 31.38C46.1631 32.3933 46.9098 33.1667 47.8431 33.7C48.8031 34.2333 49.8831 34.5 51.0831 34.5ZM73.8644 38.78C72.0777 38.78 70.3577 38.5533 68.7044 38.1C67.0777 37.62 65.7844 37.0467 64.8244 36.38L66.7444 32.58C67.7044 33.1933 68.851 33.7 70.1844 34.1C71.5177 34.5 72.851 34.7 74.1844 34.7C75.7577 34.7 76.891 34.4867 77.5844 34.06C78.3044 33.6333 78.6644 33.06 78.6644 32.34C78.6644 31.7533 78.4244 31.3133 77.9444 31.02C77.4644 30.7 76.8377 30.46 76.0644 30.3C75.291 30.14 74.4244 29.9933 73.4644 29.86C72.531 29.7267 71.5844 29.5533 70.6244 29.34C69.691 29.1 68.8377 28.7667 68.0644 28.34C67.291 27.8867 66.6644 27.2867 66.1844 26.54C65.7044 25.7933 65.4644 24.8067 65.4644 23.58C65.4644 22.22 65.851 21.0467 66.6244 20.06C67.3977 19.0467 68.4777 18.2733 69.8644 17.74C71.2777 17.18 72.9444 16.9 74.8644 16.9C76.3044 16.9 77.7577 17.06 79.2244 17.38C80.691 17.7 81.9044 18.1533 82.8644 18.74L80.9444 22.54C79.931 21.9267 78.9044 21.5133 77.8644 21.3C76.851 21.06 75.8377 20.94 74.8244 20.94C73.3044 20.94 72.171 21.1667 71.4244 21.62C70.7044 22.0733 70.3444 22.6467 70.3444 23.34C70.3444 23.98 70.5844 24.46 71.0644 24.78C71.5444 25.1 72.171 25.3533 72.9444 25.54C73.7177 25.7267 74.571 25.8867 75.5044 26.02C76.4644 26.1267 77.411 26.3 78.3444 26.54C79.2777 26.78 80.131 27.1133 80.9044 27.54C81.7044 27.94 82.3444 28.5133 82.8244 29.26C83.3044 30.0067 83.5444 30.98 83.5444 32.18C83.5444 33.5133 83.1444 34.6733 82.3444 35.66C81.571 36.6467 80.4644 37.42 79.0244 37.98C77.5844 38.5133 75.8644 38.78 73.8644 38.78ZM95.8903 38.78C93.5436 38.78 91.7303 38.18 90.4503 36.98C89.1703 35.7533 88.5303 33.9533 88.5303 31.58V12.42H93.5303V31.46C93.5303 32.4733 93.7836 33.26 94.2903 33.82C94.8236 34.38 95.557 34.66 96.4903 34.66C97.6103 34.66 98.5436 34.3667 99.2903 33.78L100.69 37.34C100.104 37.82 99.3836 38.18 98.5303 38.42C97.677 38.66 96.797 38.78 95.8903 38.78ZM85.0103 21.3V17.3H99.2503V21.3H85.0103Z" fill="#CC9200"/>
<path d="M9 51.4789C11.4014 51.4789 13.8489 50.809 16.1824 50.3388C20.5013 49.4686 24.7141 48.7292 29.0841 48.2107C41.5105 46.7364 53.9975 45.3724 66.4971 44.7145C73.0608 44.3691 79.7021 44.6385 86.2772 44.6385C88.1367 44.6385 90.8123 44.1604 92.4525 44.9806" stroke="#FFB700" stroke-width="3" stroke-linecap="round"/>
</svg>
